<?xml version="1.0" encoding="UTF-8"?>
<!DOCTYPE svg PUBLIC "-//W3C//DTD SVG 1.1//EN" "http://www.w3.org/Graphics/SVG/1.1/DTD/svg11.dtd">
<!-- Creator: CorelDRAW -->
<svg xmlns="http://www.w3.org/2000/svg" xml:space="preserve" width="176.768mm" height="250mm" version="1.1" style="shape-rendering:geometricPrecision; text-rendering:geometricPrecision; image-rendering:optimizeQuality; fill-rule:evenodd; clip-rule:evenodd"
viewBox="0 0 17676.77 25000"
 xmlns:xlink="http://www.w3.org/1999/xlink"
 xmlns:xodm="http://www.corel.com/coreldraw/odm/2003">
 <defs>
  <style type="text/css">
   <![CDATA[
    .str0 {stroke:#6A3721;stroke-width:16.84;stroke-miterlimit:22.9256}
    .str2 {stroke:#EE8FAB;stroke-width:16.84;stroke-miterlimit:22.9256}
    .str1 {stroke:#EE8FAB;stroke-width:6.41;stroke-miterlimit:22.9256}
    .fil2 {fill:none}
    .fil3 {fill:#6A3721}
    .fil1 {fill:#EE8FAB}
    .fil0 {fill:white}
   ]]>
  </style>
 </defs>
 <g id="Camada_x0020_1">
  <metadata id="CorelCorpID_0Corel-Layer"/>
  <g id="_1515159361376">
   <path class="fil0 str0" d="M2342.23 17137.38c-970.95,-186.34 -1391.25,-1344.53 -856.57,-2198.7 -839.01,-422.82 -703.47,-1687.85 -86.76,-2355.7 -554.69,-980.26 -342.74,-1721.62 698.28,-2182.9 -329.21,-733.95 210.23,-2104.83 1317.3,-1884.73 29.35,-1396.52 814.55,-1762.21 1951.12,-1523.45 427.63,-1012.46 1382.47,-1165.88 2284.22,-581.09 576.71,-809.44 1682.34,-1031.25 2332.28,-172.52 768.65,-589.07 1970.12,-141.31 2268.39,769.56 970.96,-305.72 2150.4,318.26 1921.05,1425.59 919.01,-113.97 1705.35,738.22 1475.42,1794.12 1021.18,523.82 1132.11,1261.04 602.9,2214.52 791.81,652.31 981.03,1592.11 69.92,2229.34 372.24,929.55 439.58,1932.03 -760.73,2167.22 403.75,932.39 -102.45,2179.19 -1268.95,1916.07 80.87,1100.93 -791.38,1711.22 -1855.44,1523.6 -370.94,1114.87 -1384.77,1234.83 -2284.36,596.89 -233.38,789.51 -1716.87,1057.9 -2284.22,94.17 -898.73,625.68 -1892.85,439.63 -2284.23,-628.24 -1147.21,111.26 -1760.76,-288.62 -2030.4,-1381.99 -964.76,-134.48 -1482.05,-886.23 -1209.23,-1821.76z"/>
   <path class="fil1 str1" d="M6070.24 14951.64c-69.07,104.71 -148.16,180.18 -238.19,225.45 -89.57,45.76 -203.91,68.39 -342.53,68.39 -224.39,0 -403.99,-68.39 -539.76,-204.7 -135.3,-136.32 -202.95,-315.08 -202.95,-537.23 0,-187.25 48.11,-369.31 144.34,-547.14 96.24,-177.81 222.95,-320.73 379.69,-428.27 156.74,-108.01 314.42,-161.78 472.59,-161.78 115.29,0 206.75,31.61 274.4,95.28 67.17,63.68 100.99,150.46 100.99,261.3 0,161.78 -59.07,307.05 -177.21,435.35 -117.68,128.77 -245.82,192.91 -383.03,192.91 -70.03,0 -126.72,-21.22 -171.03,-63.21 -44.3,-42.45 -66.22,-97.63 -66.22,-165.55 0,-108.48 61.94,-210.37 185.32,-306.12l29.07 34.44c-66.7,43.39 -100.05,111.31 -100.05,204.23 0,57.08 19.54,103.3 59.07,139.62 39.55,36.31 89.57,54.71 150.07,54.71 93.86,0 177.22,-40.1 250.11,-120.75 72.89,-80.66 109.57,-178.29 109.57,-292.43 0,-110.85 -34.3,-199.51 -102.9,-266.96 -68.61,-67.45 -159.12,-100.93 -271.07,-100.93 -187.71,0 -353.49,87.26 -498.32,261.3 -144.35,174.04 -216.77,383.46 -216.77,627.31 0,224.98 64.8,412.23 193.9,562.23 129.59,149.52 292.99,224.5 490.69,224.5 98.14,0 180.08,-17.45 245.35,-51.88 65.74,-34.44 125.29,-92.45 179.13,-174.51l45.72 34.43zm-88.13 22.17c121.01,-170.28 220.09,-280.18 297.75,-330.17 77.17,-49.53 158.16,-74.52 242.96,-74.52 80.98,0 144.34,21.22 190.56,63.67 46.2,41.98 69.07,100.94 69.07,176.41 0,107.53 -43.83,205.64 -131.48,294.78 -87.19,88.68 -189.61,133.02 -305.85,133.02 -75.27,0 -135.77,-22.17 -181.03,-66.98 -45.26,-44.34 -67.65,-100.94 -67.65,-169.81 0,-36.79 2.86,-70.28 8.58,-99.52 -14.29,15.56 -39.55,51.41 -76.7,107.54l-46.21 -34.43zm454.01 172.63c70.98,0 127.2,-25.47 169.12,-75.93 41.92,-50.48 62.9,-117.92 62.9,-201.41 0,-72.64 -19.55,-129.71 -58.6,-170.74 -39.07,-41.04 -90.99,-61.32 -155.31,-61.32 -67.64,0 -121.95,24.53 -162.44,73.11 -40.51,49.06 -60.98,116.97 -60.98,204.23 0,154.71 68.6,232.06 205.33,232.06zm503.55 -165.08c-74.32,105.18 -144.82,174.52 -210.56,208.48 -66.22,33.49 -132.45,53.77 -198.19,61.31l-11.43 -31.6c153.4,-34.43 278.22,-124.52 373.97,-271.2l46.21 33.01zm986.14 2.84c-111.96,164.6 -218.67,247.14 -320.61,247.14 -34.31,0 -60.03,-11.31 -78.13,-33.95 -18.1,-22.64 -27.15,-71.7 -27.15,-147.63l0 -116.5c-101.47,146.21 -172.46,234.41 -213.91,264.6 -40.97,29.71 -80.03,44.81 -116.71,44.81 -38.59,0 -68.13,-12.74 -89.57,-38.68 -20.96,-25.47 -31.44,-85.37 -31.44,-179.23l0 -226.4c-40.02,88.67 -80.99,158.48 -122.44,209.89l-46.2 -31.6c82.89,-117.92 139.11,-236.78 168.64,-356.57l140.06 -70.76 0 500.44c0,35.85 1.91,59.91 6.2,72.16 4.29,12.74 15.72,18.87 34.77,18.87 20.49,0 47.64,-15.56 80.99,-47.17 33.34,-31.13 73.36,-81.6 120.05,-150.45 46.21,-69.34 69.55,-107.08 69.55,-113.68l0 -209.41 140.06 -70.76 0 432.52c0,57.07 1.9,95.75 6.2,116.5 4.28,20.76 16.2,31.13 35.25,31.13 45.26,0 112.9,-60.37 202.47,-181.11l41.92 35.85zm260.59 -278.29c94.32,-94.81 186.26,-142.44 275.83,-142.44 70.98,0 127.68,25 170.07,74.52 41.93,50 62.89,116.04 62.89,197.63 0,105.18 -34.3,197.15 -103.38,275.45 -68.6,78.3 -147.21,117.45 -234.87,117.45 -63.84,0 -120.53,-18.86 -170.55,-56.6l0 532.04c0,109.42 -30.97,195.26 -92.42,257.53 -61.93,62.26 -137.2,93.38 -226.29,93.38 -93.38,0 -166.26,-39.62 -218.67,-118.86l114.34 -113.21 22.87 19.34c-5.72,16.51 -8.58,30.19 -8.58,40.09 0,33.96 11.44,64.14 34.3,89.14 23.34,25.47 51.93,38.21 86.71,38.21 92.9,0 139.1,-91.51 139.1,-274.98l0 -941.92c-33.81,76.41 -78.6,149.52 -133.39,218.38l-40.96 -34.43c77.64,-103.3 135.77,-220.27 174.35,-350.92l148.64 -73.59 0 153.76zm0 395.26c47.15,45.28 102.9,67.91 167.21,67.91 60.03,0 111,-25.94 152.94,-77.35 41.92,-51.89 62.88,-116.51 62.88,-193.86 0,-66.04 -18.11,-119.33 -54.79,-158.95 -36.2,-39.62 -82.42,-59.44 -138.63,-59.44 -72.9,0 -136.25,38.68 -189.6,116.04l0 305.64zm720.3 -116.97c-102.42,160.36 -238.19,250.45 -407.31,269.79l-12.86 -31.61c150.06,-33.48 275.83,-123.58 378.26,-271.2l41.92 33.02zm-59.55 -7.55c17.63,-25 33.82,-48.11 48.11,-69.81 14.29,-21.7 29.06,-46.7 43.83,-74.53 14.76,-28.29 31.45,-65.09 49.55,-110.36 18.11,-45.76 27.15,-75.94 27.15,-90.56l0 -534.87c0,-131.6 41.92,-250.93 125.77,-357.53 83.85,-107.06 171.03,-160.36 262.5,-160.36 48.11,0 86.23,16.52 113.86,49.53 27.15,33.48 40.97,77.36 40.97,133.01 0,73.59 -30.49,172.63 -91.94,297.63 -61.45,124.52 -165.3,299.5 -311.08,524.02l0 399.02c0,57.07 2.37,95.75 6.67,116.5 4.76,20.76 16.67,31.13 36.2,31.13 41.45,0 108.15,-60.37 200.09,-181.11l42.87 35.85c-110.04,164.6 -219.14,247.14 -327.27,247.14 -32.4,0 -57.17,-10.84 -73.85,-32.53 -16.67,-21.7 -24.77,-71.23 -24.77,-148.58l0 -251.87c-28.59,72.63 -70.51,143.86 -125.29,212.72l-43.36 -34.43zm308.71 -494.78c124.81,-202.81 206.75,-349.97 246.3,-441.94 39.53,-91.51 59.55,-171.22 59.55,-238.66 0,-103.3 -31.92,-154.71 -96.23,-154.71 -58.6,0 -108.15,32.54 -148.64,98.11 -40.51,65.56 -60.98,154.71 -60.98,266.95l0 470.25zm1034.72 502.33c-54.78,88.66 -114.81,152.82 -180.07,192.9 -65.27,40.09 -151.02,59.91 -257.26,59.91 -77.17,0 -138.63,-22.64 -183.89,-68.4 -45.25,-45.75 -67.64,-109.89 -67.64,-192.43 0,-22.17 1.9,-45.76 5.72,-70.75 -33.83,42.92 -59.07,77.35 -76.71,102.82l-46.2 -31.6c120.99,-169.33 214.37,-280.64 279.17,-333.94 65.26,-52.83 132.43,-79.24 201.04,-79.24 38.59,0 70.03,10.85 94.32,33.02 24.77,22.16 37.15,50.93 37.15,85.84 0,119.81 -106.71,237.71 -320.13,353.75 29.07,66.03 89.08,99.05 180.56,99.05 43.83,0 92.42,-15.56 145.77,-47.16 53.84,-31.13 102.43,-76.89 146.25,-136.78l41.92 33.02zm-540.7 -1.89c154.82,-74.52 231.99,-157.53 231.99,-248.56 0,-27.36 -7.62,-50 -22.86,-67.46 -15.72,-17.45 -36.21,-26.41 -62.41,-26.41 -47.63,0 -87.65,21.7 -120.05,65.09 -32.87,42.92 -49.07,95.28 -49.07,155.66 0,33.48 3.8,61.3 10.95,84.43 7.62,22.16 11.44,34.43 11.44,37.26zm1254.82 2.36c-104.33,164.61 -238.68,246.68 -403.51,246.68 -80.03,0 -144.82,-25.93 -194.37,-78.29 -49.07,-51.88 -73.84,-124.99 -73.84,-219.33l2.85 -10.84 -62.88 85.37 -45.73 -31.6c137.68,-200.93 236.29,-319.79 295.36,-357.05 59.07,-37.26 118.15,-56.13 176.74,-56.13 97.19,0 167.21,33.02 211.04,99.05 -13.34,50.47 -43.83,87.26 -91.46,110.38 -40.98,-100 -100.99,-150 -180.08,-150 -46.68,0 -88.6,21.23 -126.25,63.68 -37.63,41.98 -56.68,96.21 -56.68,162.73 0,76.41 22.38,141.97 67.16,197.15 44.78,55.19 101.48,83.01 170.08,83.01 95.28,0 183.42,-59.42 265.35,-178.28l46.21 33.48zm980.42 -0.46c-106.71,164.6 -211.04,247.14 -313.47,247.14 -38.59,0 -66.22,-10.37 -82.89,-30.65 -16.68,-20.29 -25.72,-63.21 -26.68,-127.83 -55.26,67.93 -101.94,112.26 -140.05,133.01 -38.59,20.76 -81.95,31.14 -131.02,31.14 -70.98,0 -127.2,-24.54 -169.12,-73.11 -41.93,-48.58 -62.89,-113.67 -62.89,-195.74l0 -59.43c-10,13.2 -33.82,46.23 -70.98,99.52l-46.2 -31.6c81.46,-125 167.69,-223.57 257.72,-294.8 90.52,-71.22 169.6,-107.06 237.25,-107.06 48.12,0 95.76,14.14 142.92,42.92l122.43 -62.73 0 469.3c0,50 2.38,79.71 7.15,90.08 4.77,9.91 17.15,15.09 37.64,15.09 17.63,0 44.3,-15.56 80.03,-47.15 35.24,-31.14 74.32,-75.95 116.24,-133.96l41.92 35.85zm-423.04 -16.52l0 -276.87c-37.15,-37.73 -81.94,-56.6 -133.86,-56.6 -55.74,0 -106.24,25.94 -150.55,77.36 -44.77,51.88 -67.16,115.56 -67.16,191.97 0,66.5 15.72,117.91 47.63,154.23 31.44,36.33 74.79,54.71 129.58,54.71 42.88,0 82.42,-21.22 119.1,-63.21 36.68,-42.44 55.26,-69.33 55.26,-81.59zm1506.84 0.47c-110.52,175.45 -226.77,263.18 -348.25,263.18 -61.45,0 -114.34,-21.22 -159.59,-64.14 -44.78,-42.45 -110.04,-129.71 -195.8,-260.83l-70.98 87.26 0 188.2 -140.06 69.33 0 -507.52 -179.6 258.95 -40.49 -37.26c146.73,-225.93 220.09,-345.25 220.09,-357.05l0 -627.32c0,-111.78 38.11,-209.42 113.86,-293.38 75.75,-83.95 159.6,-125.93 251.54,-125.93 105.29,0 157.69,52.36 157.69,156.59 0,81.14 -32.4,193.38 -97.66,337.72 -64.79,143.86 -160.07,307.05 -285.36,490.05l0 363.19c108.62,-133.96 193.42,-223.57 253.92,-270.27 60.51,-46.69 118.62,-69.8 174.36,-69.8 40.97,0 75.75,15.09 105.29,44.81 29.06,29.71 43.82,54.24 43.82,73.58 0,27.83 -32.39,59.91 -97.18,96.69 -32.4,-75.47 -71.46,-113.2 -117.19,-113.2 -51.93,0 -115.77,42.45 -191.04,127.35 72.42,110.84 131.01,193.86 176.27,248.57 44.78,55.18 97.66,82.53 158.16,82.53 55.27,0 130.06,-65.08 224.87,-195.27l43.35 33.96zm-774.62 -530.15c90.99,-143.38 160.08,-274.98 206.76,-395.26 47.16,-120.74 70.51,-217.9 70.51,-291.48 0,-35.85 -9.05,-66.51 -27.15,-91.98 -18.11,-25.47 -42.4,-38.2 -73.37,-38.2 -49.07,0 -90.98,28.77 -125.29,86.31 -34.31,58.01 -51.46,126.41 -51.46,205.65l0 524.96zm1509.23 546.2c-54.78,88.66 -114.81,152.82 -180.08,192.9 -65.27,40.09 -151.02,59.91 -257.26,59.91 -77.17,0 -138.64,-22.64 -183.89,-68.4 -45.26,-45.75 -67.65,-109.89 -67.65,-192.43 0,-22.17 1.9,-45.76 5.72,-70.75 -33.83,42.92 -59.07,77.35 -76.71,102.82l-46.2 -31.6c121,-169.33 214.38,-280.64 279.17,-333.94 65.26,-52.83 132.44,-79.24 201.04,-79.24 38.59,0 70.03,10.85 94.33,33.02 24.76,22.16 37.15,50.93 37.15,85.84 0,119.81 -106.71,237.71 -320.13,353.75 29.06,66.03 89.08,99.05 180.56,99.05 43.82,0 92.42,-15.56 145.77,-47.16 53.83,-31.13 102.42,-76.89 146.25,-136.78l41.92 33.02zm-540.71 -1.89c154.83,-74.52 232,-157.53 232,-248.56 0,-27.36 -7.63,-50 -22.87,-67.46 -15.72,-17.45 -36.2,-26.41 -62.41,-26.41 -47.63,0 -87.65,21.7 -120.05,65.09 -32.87,42.92 -49.07,95.28 -49.07,155.66 0,33.48 3.81,61.3 10.95,84.43 7.63,22.16 11.44,34.43 11.44,37.26z"/>
   <path class="fil2 str2" d="M8847.58 9137.87c191.31,0 346.41,153.17 346.41,342.13 0,188.96 -155.09,342.14 -346.41,342.14 -191.31,0 -346.41,-153.18 -346.41,-342.14 0,-188.96 155.09,-342.13 346.41,-342.13z"/>
   <path class="fil1 str2" d="M7781.55 10523.11c-144.71,-38.59 -263.86,-2.27 -348.21,106.62 -139.76,167.37 -69.44,372.84 76.31,458.27 74.04,55.81 150.72,88.16 227.97,115.45 428.55,122.78 684.63,154.19 1124.38,104.78 193.94,-34.07 387.85,-68.02 601.19,-140.51 202.73,-58.07 525.71,-201 721.26,-196.22 94.14,4.18 172.34,16.99 241.62,46.53 152.9,73.86 251.7,175.83 307.19,300.29 46.1,110.63 40.26,203.38 12.89,288.71 -80.14,-26.09 -160.28,-52.17 -240.42,-78.26 -5.05,-114.74 -40.13,-161.47 -86.99,-209.78 -144.65,-149.07 -414.31,-66.36 -691.73,32.57 -97.79,34.87 -206.01,60.35 -296.98,94.21 -156.82,44.3 -305.2,76.09 -452.39,106.11 -151.2,23.16 -324.72,39.46 -534.73,38.53 -245.01,8.62 -494.16,-42.8 -768.24,-135.16 -131.62,-43.77 -256.58,-101.46 -354.49,-180.82 -93.43,-65.98 -169.03,-165.61 -214.39,-317.17 -31.79,-146.47 -8.74,-291.15 80.82,-433.67 117.25,-184.25 284.46,-282.03 489.45,-276.03l0.03 0c-9.6,-172.64 116.07,-560.75 582.17,-606.05 -14.67,-52.49 -22.55,-107.83 -22.55,-165 0,-337.9 274.08,-611.81 612.17,-611.81 338.1,0 612.18,273.91 612.18,611.81 0,337.89 -274.08,611.8 -612.18,611.8 -156.11,0 -298.55,-58.43 -406.68,-154.56 -153.06,-40.13 -325.06,-25.56 -445.34,117.11 -61.11,98.91 -70.98,198.75 -23.86,287.35 32.79,61.66 93.45,100.39 163.81,141.46 62.73,36.62 123.51,50.29 194.38,67.45 588.39,135.55 1025.37,-93.39 1557.2,-297.4 168.13,-77.49 317.36,-93.48 451.96,-61.89 169.76,43.33 276.28,135.41 329.38,302.54 22.31,70.24 27.06,145.46 21.97,221.04 -85.98,-3.8 -177.95,-9.07 -263.94,-12.87 10.3,-247.74 -151.54,-306.58 -343.67,-246.54 -288.06,90.03 -553.3,247.21 -848.84,318.46 -384.71,92.76 -972.92,173.39 -1375.88,-161.57 -34.97,-29.07 -57.19,-55.82 -76.84,-85.77l0 0z"/>
   <path class="fil1 str2" d="M7447.73 11746.49c82.87,0.35 180.12,-7.83 262.99,-7.47 9.25,442.68 86.01,775.08 242.88,986.02 75.74,77.96 158.32,108.08 208.01,125.21 -28.96,-332.85 -44.66,-667.15 -39.15,-1003.8 86.71,1.13 173.42,2.25 260.13,3.38 0.66,363.9 24.28,709.82 63.26,1058.54 83.13,35.68 167.03,46.8 257.97,55.4 -19.61,-156.36 -14.81,-335.76 17.26,-522.53 81.79,7.7 176.52,9.01 258.32,16.71 -18.02,179.39 -21.51,363.64 2.63,527.86 124.28,10.25 251.84,12.62 386.77,-6.85 -12.79,-96.88 17.85,-374.48 -60.26,-1041.51 81.68,-8.83 179.16,-21.93 260.83,-30.76 56.15,352.94 62.9,684.93 53.91,1015.11 501.6,-23.26 414.46,-746.62 477.65,-1244.02 84.56,0.06 169.12,0.12 253.68,0.18 -11.3,525.33 -48.31,867.98 -142.18,1102.4 -132.5,330.88 -416.7,448.86 -1234.28,466.54 -126.23,2.73 -266.65,-16.02 -425.35,-37.98 -109.39,-18.23 -215.26,-48.1 -322.05,-72.76 -227.79,-52.61 -436.03,-108.22 -565.15,-368.81 -11.29,-22.79 -22.54,-47.16 -32.72,-73.85 -113.85,-278.38 -174.76,-594.63 -185.13,-947z"/>
   <path class="fil2 str2" d="M8904.23 9663.61c102.41,-30.99 160.05,-138.32 128.75,-239.71 -31.3,-101.38 -139.7,-158.45 -242.1,-127.46 -102.41,30.98 -160.05,138.31 -128.75,239.7 31.3,101.39 139.7,158.46 242.1,127.47z"/>
   <g>
    <path class="fil3" d="M2422.53 11417.59c-42.07,-141.13 -186.3,-259.53 -386.57,-244.58 -169.78,12.67 -330.42,143.51 -237.9,330.4 78.51,158.59 315.77,290.29 483.99,453.18 30.67,29.7 124.02,150.49 154.61,164.68 30.93,-75.38 244.52,-259.34 312.95,-314.32 30.51,-24.52 54.47,-48.04 84.62,-71.33 79.23,-61.19 182.75,-131.33 226.16,-234.32 112.06,-265.91 -248.96,-428.11 -495.29,-253.38 -38.16,27.06 -86.8,79.62 -110.4,123.38 -14.25,26.4 -10.71,27.96 -32.16,46.29z"/>
    <path class="fil1" d="M2422.53 11417.59c21.46,-18.32 17.91,-19.89 32.16,-46.29 23.6,-43.75 72.24,-96.31 110.4,-123.38 246.34,-174.74 607.36,-12.53 495.29,253.38 -43.41,102.99 -146.94,173.13 -226.16,234.32 -30.15,23.29 -54.11,46.81 -84.62,71.33 -68.43,54.98 -282.01,238.94 -312.95,314.32 -30.6,-14.19 -123.94,-134.98 -154.61,-164.68 -168.22,-162.9 -405.48,-294.59 -483.99,-453.18 -92.52,-186.89 68.12,-317.73 237.9,-330.4 200.27,-14.95 344.49,103.45 386.57,244.58zm3.92 -168.38c-3.07,-2.74 -4.18,-3.45 -11.17,-12.05 -3.64,-4.49 -6.45,-8.78 -9.81,-13.49 -228.43,-321.19 -927.31,-99.67 -686.23,334.54 141.51,254.86 488.8,376.99 644.98,652.03 19.91,35.05 37.49,79.4 60.66,115.42 44.55,-80.92 89.39,-156.49 146.34,-220.08 66.92,-74.74 154.99,-159.97 236.92,-224.34 108.75,-85.45 256.1,-203.13 323.91,-316.32 252.31,-421.2 -447.83,-687.23 -705.61,-315.7z"/>
   </g>
   <g>
    <path class="fil3" d="M2323.78 13513.76c-42.07,-141.13 -186.3,-259.52 -386.57,-244.58 -169.77,12.67 -330.41,143.52 -237.9,330.4 78.51,158.6 315.77,290.29 483.99,453.19 30.67,29.7 124.02,150.48 154.61,164.68 30.93,-75.38 244.52,-259.34 312.94,-314.32 30.52,-24.53 54.48,-48.04 84.63,-71.33 79.22,-61.19 182.75,-131.34 226.16,-234.33 112.06,-265.91 -248.96,-428.11 -495.29,-253.38 -38.16,27.07 -86.8,79.62 -110.4,123.38 -14.25,26.41 -10.71,27.96 -32.16,46.29z"/>
    <path class="fil1" d="M2323.78 13513.76c21.46,-18.32 17.91,-19.88 32.16,-46.29 23.6,-43.75 72.24,-96.3 110.4,-123.38 246.34,-174.74 607.36,-12.53 495.29,253.38 -43.41,102.99 -146.94,173.14 -226.16,234.33 -30.15,23.29 -54.11,46.8 -84.63,71.33 -68.42,54.97 -282,238.94 -312.94,314.32 -30.6,-14.2 -123.94,-134.98 -154.61,-164.68 -168.22,-162.9 -405.48,-294.59 -483.99,-453.19 -92.52,-186.88 68.12,-317.73 237.9,-330.4 200.28,-14.94 344.5,103.45 386.57,244.58zm3.92 -168.37c-3.07,-2.75 -4.18,-3.46 -11.17,-12.06 -3.64,-4.49 -6.45,-8.78 -9.81,-13.49 -228.43,-321.19 -927.31,-99.67 -686.23,334.54 141.51,254.86 488.8,377 644.98,652.04 19.91,35.05 37.49,79.39 60.66,115.41 44.55,-80.91 89.39,-156.49 146.34,-220.08 66.92,-74.73 154.99,-159.96 236.92,-224.33 108.75,-85.45 256.1,-203.13 323.91,-316.32 252.31,-421.2 -447.83,-687.24 -705.61,-315.7z"/>
   </g>
   <g>
    <path class="fil3" d="M2786.86 15811.3c-42.08,-141.13 -186.3,-259.53 -386.57,-244.59 -169.77,12.68 -330.41,143.52 -237.9,330.4 78.52,158.59 315.77,290.29 484,453.18 30.66,29.7 124.02,150.49 154.61,164.68 30.93,-75.38 244.51,-259.34 312.94,-314.32 30.52,-24.52 54.48,-48.04 84.63,-71.33 79.22,-61.19 182.75,-131.33 226.16,-234.33 112.06,-265.9 -248.96,-428.11 -495.29,-253.38 -38.16,27.07 -86.8,79.63 -110.41,123.38 -14.24,26.4 -10.7,27.96 -32.15,46.29z"/>
    <path class="fil1" d="M2786.86 15811.3c21.46,-18.32 17.91,-19.89 32.15,-46.29 23.61,-43.75 72.25,-96.31 110.41,-123.38 246.34,-174.74 607.36,-12.53 495.29,253.38 -43.41,103 -146.94,173.14 -226.16,234.33 -30.15,23.29 -54.11,46.81 -84.63,71.33 -68.43,54.97 -282,238.94 -312.94,314.32 -30.6,-14.19 -123.95,-134.98 -154.61,-164.68 -168.22,-162.9 -405.48,-294.59 -484,-453.18 -92.51,-186.89 68.13,-317.73 237.9,-330.4 200.27,-14.94 344.49,103.46 386.57,244.59zm3.91 -168.38c-3.06,-2.75 -4.17,-3.45 -11.16,-12.06 -3.64,-4.48 -6.45,-8.77 -9.81,-13.49 -228.43,-321.18 -927.31,-99.66 -686.23,334.54 141.5,254.87 488.79,377 644.98,652.04 19.91,35.05 37.49,79.39 60.66,115.42 44.54,-80.92 89.39,-156.5 146.33,-220.09 66.93,-74.73 154.99,-159.96 236.93,-224.33 108.75,-85.45 256.09,-203.13 323.91,-316.32 252.3,-421.2 -447.83,-687.23 -705.61,-315.7z"/>
   </g>
   <g>
    <path class="fil3" d="M3792.69 17492.13c-42.08,-141.13 -186.3,-259.53 -386.57,-244.58 -169.77,12.67 -330.41,143.51 -237.9,330.4 78.52,158.59 315.77,290.29 484,453.18 30.66,29.7 124.02,150.49 154.61,164.68 30.93,-75.38 244.51,-259.34 312.94,-314.32 30.52,-24.52 54.48,-48.04 84.63,-71.33 79.22,-61.19 182.75,-131.33 226.16,-234.32 112.06,-265.91 -248.96,-428.11 -495.29,-253.38 -38.16,27.07 -86.8,79.62 -110.41,123.38 -14.24,26.4 -10.7,27.96 -32.15,46.29z"/>
    <path class="fil1" d="M3792.69 17492.13c21.46,-18.32 17.91,-19.89 32.15,-46.29 23.61,-43.75 72.25,-96.3 110.41,-123.38 246.34,-174.74 607.36,-12.53 495.29,253.38 -43.41,102.99 -146.94,173.13 -226.16,234.32 -30.15,23.29 -54.11,46.81 -84.63,71.33 -68.43,54.98 -282,238.94 -312.94,314.32 -30.6,-14.19 -123.95,-134.98 -154.61,-164.68 -168.22,-162.9 -405.48,-294.59 -484,-453.18 -92.51,-186.89 68.13,-317.73 237.9,-330.4 200.27,-14.95 344.49,103.45 386.57,244.58zm3.91 -168.37c-3.06,-2.75 -4.17,-3.46 -11.16,-12.06 -3.64,-4.49 -6.45,-8.78 -9.81,-13.49 -228.43,-321.19 -927.31,-99.67 -686.23,334.54 141.5,254.86 488.79,376.99 644.98,652.03 19.91,35.05 37.49,79.4 60.66,115.42 44.55,-80.92 89.39,-156.49 146.34,-220.08 66.93,-74.74 154.99,-159.96 236.93,-224.34 108.75,-85.44 256.09,-203.13 323.91,-316.32 252.3,-421.2 -447.83,-687.23 -705.61,-315.69z"/>
   </g>
   <g>
    <path class="fil3" d="M4998.91 18821.9c-42.07,-141.13 -186.3,-259.52 -386.57,-244.58 -169.77,12.67 -330.41,143.52 -237.9,330.4 78.51,158.6 315.77,290.29 483.99,453.19 30.67,29.7 124.02,150.48 154.61,164.68 30.93,-75.38 244.52,-259.34 312.94,-314.32 30.52,-24.53 54.48,-48.04 84.63,-71.33 79.22,-61.19 182.75,-131.34 226.16,-234.33 112.06,-265.91 -248.96,-428.11 -495.29,-253.38 -38.16,27.07 -86.8,79.62 -110.41,123.38 -14.24,26.41 -10.7,27.96 -32.15,46.29z"/>
    <path class="fil1" d="M4998.91 18821.9c21.46,-18.32 17.91,-19.88 32.15,-46.29 23.61,-43.75 72.25,-96.3 110.41,-123.38 246.34,-174.74 607.36,-12.53 495.29,253.38 -43.41,102.99 -146.94,173.14 -226.16,234.33 -30.15,23.29 -54.11,46.8 -84.63,71.33 -68.42,54.97 -282,238.94 -312.94,314.32 -30.6,-14.2 -123.94,-134.98 -154.61,-164.68 -168.22,-162.9 -405.48,-294.59 -483.99,-453.19 -92.52,-186.88 68.12,-317.73 237.9,-330.4 200.27,-14.94 344.5,103.45 386.57,244.58zm3.92 -168.37c-3.07,-2.75 -4.18,-3.46 -11.17,-12.06 -3.64,-4.49 -6.45,-8.78 -9.81,-13.49 -228.43,-321.19 -927.31,-99.67 -686.23,334.54 141.51,254.86 488.79,377 644.98,652.04 19.91,35.05 37.49,79.39 60.66,115.41 44.54,-80.92 89.39,-156.49 146.33,-220.08 66.93,-74.73 155,-159.96 236.93,-224.33 108.75,-85.45 256.1,-203.13 323.91,-316.32 252.31,-421.2 -447.83,-687.24 -705.61,-315.7z"/>
   </g>
   <g>
    <path class="fil3" d="M6964.69 20062.44c-42.07,-141.13 -186.3,-259.52 -386.57,-244.58 -169.77,12.67 -330.41,143.52 -237.9,330.4 78.51,158.6 315.77,290.29 483.99,453.19 30.67,29.7 124.02,150.48 154.61,164.68 30.93,-75.38 244.52,-259.34 312.94,-314.32 30.52,-24.52 54.48,-48.04 84.63,-71.33 79.22,-61.19 182.75,-131.33 226.16,-234.33 112.06,-265.9 -248.96,-428.11 -495.29,-253.38 -38.16,27.07 -86.8,79.63 -110.41,123.38 -14.24,26.41 -10.7,27.96 -32.15,46.29z"/>
    <path class="fil1" d="M6964.69 20062.44c21.46,-18.32 17.91,-19.88 32.15,-46.29 23.61,-43.75 72.25,-96.3 110.41,-123.38 246.34,-174.74 607.36,-12.53 495.29,253.38 -43.41,103 -146.94,173.14 -226.16,234.33 -30.15,23.29 -54.11,46.81 -84.63,71.33 -68.42,54.97 -282,238.94 -312.94,314.32 -30.6,-14.2 -123.94,-134.98 -154.61,-164.68 -168.22,-162.9 -405.48,-294.59 -483.99,-453.19 -92.52,-186.88 68.12,-317.73 237.9,-330.4 200.27,-14.94 344.5,103.45 386.57,244.58zm3.92 -168.37c-3.07,-2.75 -4.18,-3.46 -11.17,-12.06 -3.64,-4.49 -6.45,-8.78 -9.81,-13.49 -228.43,-321.18 -927.31,-99.67 -686.23,334.54 141.51,254.86 488.79,377 644.98,652.04 19.91,35.05 37.49,79.39 60.66,115.41 44.54,-80.91 89.39,-156.49 146.34,-220.08 66.92,-74.73 154.99,-159.96 236.92,-224.33 108.75,-85.45 256.1,-203.13 323.91,-316.32 252.31,-421.2 -447.83,-687.23 -705.61,-315.7z"/>
   </g>
   <g>
    <path class="fil3" d="M9045.82 20194.32c-42.07,-141.13 -186.3,-259.52 -386.57,-244.58 -169.78,12.67 -330.42,143.52 -237.9,330.4 78.51,158.6 315.77,290.29 483.99,453.19 30.67,29.7 124.02,150.48 154.61,164.68 30.94,-75.38 244.52,-259.34 312.95,-314.32 30.51,-24.53 54.47,-48.04 84.62,-71.33 79.23,-61.2 182.75,-131.34 226.16,-234.33 112.06,-265.91 -248.95,-428.11 -495.29,-253.38 -38.16,27.07 -86.8,79.62 -110.4,123.38 -14.25,26.41 -10.71,27.96 -32.16,46.29z"/>
    <path class="fil1" d="M9045.82 20194.32c21.46,-18.32 17.91,-19.88 32.16,-46.29 23.6,-43.75 72.25,-96.3 110.4,-123.38 246.35,-174.74 607.36,-12.53 495.29,253.38 -43.41,102.99 -146.94,173.13 -226.16,234.33 -30.15,23.29 -54.11,46.8 -84.62,71.33 -68.43,54.97 -282,238.94 -312.95,314.32 -30.59,-14.2 -123.94,-134.98 -154.61,-164.68 -168.22,-162.9 -405.48,-294.59 -483.99,-453.19 -92.52,-186.88 68.12,-317.73 237.9,-330.4 200.27,-14.94 344.49,103.45 386.57,244.58zm3.92 -168.37c-3.06,-2.75 -4.18,-3.46 -11.17,-12.06 -3.64,-4.49 -6.45,-8.78 -9.8,-13.49 -228.43,-321.19 -927.32,-99.67 -686.24,334.54 141.51,254.86 488.8,377 644.98,652.04 19.91,35.05 37.49,79.39 60.66,115.41 44.55,-80.92 89.39,-156.49 146.34,-220.08 66.92,-74.73 154.99,-159.96 236.92,-224.33 108.76,-85.45 256.1,-203.13 323.91,-316.32 252.31,-421.2 -447.83,-687.24 -705.61,-315.7z"/>
   </g>
   <g>
    <path class="fil3" d="M11397.49 19897.17c-42.07,-141.13 -186.3,-259.52 -386.57,-244.58 -169.78,12.67 -330.42,143.52 -237.9,330.4 78.51,158.6 315.77,290.29 483.99,453.19 30.67,29.7 124.02,150.48 154.61,164.68 30.94,-75.38 244.52,-259.34 312.95,-314.32 30.51,-24.52 54.47,-48.04 84.62,-71.33 79.23,-61.19 182.75,-131.33 226.16,-234.33 112.06,-265.9 -248.96,-428.11 -495.29,-253.38 -38.16,27.07 -86.8,79.63 -110.4,123.38 -14.25,26.41 -10.71,27.96 -32.16,46.29z"/>
    <path class="fil1" d="M11397.49 19897.17c21.46,-18.32 17.91,-19.88 32.16,-46.29 23.6,-43.75 72.24,-96.3 110.4,-123.38 246.34,-174.74 607.36,-12.53 495.29,253.38 -43.41,103 -146.94,173.14 -226.16,234.33 -30.15,23.29 -54.11,46.81 -84.62,71.33 -68.43,54.97 -282,238.94 -312.95,314.32 -30.6,-14.2 -123.94,-134.98 -154.61,-164.68 -168.22,-162.9 -405.48,-294.59 -483.99,-453.19 -92.52,-186.88 68.12,-317.73 237.9,-330.4 200.27,-14.94 344.49,103.45 386.57,244.58zm3.92 -168.37c-3.06,-2.75 -4.18,-3.46 -11.17,-12.06 -3.64,-4.49 -6.45,-8.78 -9.81,-13.49 -228.43,-321.18 -927.31,-99.67 -686.23,334.54 141.51,254.86 488.8,377 644.98,652.04 19.91,35.05 37.49,79.39 60.66,115.41 44.55,-80.91 89.39,-156.49 146.34,-220.08 66.92,-74.73 154.99,-159.96 236.92,-224.33 108.75,-85.45 256.1,-203.13 323.91,-316.32 252.31,-421.2 -447.83,-687.23 -705.61,-315.7z"/>
   </g>
   <g>
    <path class="fil3" d="M13219.9 18759.34c-42.07,-141.13 -186.3,-259.53 -386.57,-244.59 -169.78,12.68 -330.42,143.52 -237.9,330.4 78.51,158.59 315.77,290.29 483.99,453.18 30.67,29.7 124.02,150.49 154.61,164.68 30.94,-75.38 244.52,-259.34 312.95,-314.32 30.51,-24.52 54.47,-48.04 84.63,-71.33 79.22,-61.19 182.75,-131.33 226.15,-234.33 112.06,-265.9 -248.95,-428.11 -495.29,-253.37 -38.16,27.06 -86.8,79.62 -110.4,123.38 -14.24,26.4 -10.71,27.96 -32.16,46.29z"/>
    <path class="fil1" d="M13219.9 18759.34c21.46,-18.32 17.92,-19.89 32.16,-46.29 23.6,-43.75 72.25,-96.31 110.4,-123.38 246.35,-174.74 607.36,-12.53 495.29,253.37 -43.4,103 -146.94,173.14 -226.15,234.33 -30.16,23.29 -54.12,46.81 -84.63,71.33 -68.43,54.97 -282,238.94 -312.95,314.32 -30.59,-14.19 -123.94,-134.98 -154.61,-164.68 -168.22,-162.9 -405.48,-294.59 -483.99,-453.18 -92.52,-186.89 68.12,-317.73 237.9,-330.4 200.27,-14.94 344.49,103.46 386.57,244.59zm3.92 -168.38c-3.06,-2.75 -4.18,-3.45 -11.17,-12.05 -3.64,-4.49 -6.45,-8.78 -9.8,-13.5 -228.43,-321.18 -927.31,-99.66 -686.24,334.55 141.51,254.86 488.8,376.99 644.98,652.03 19.91,35.05 37.49,79.39 60.66,115.42 44.55,-80.92 89.39,-156.49 146.34,-220.09 66.92,-74.73 154.99,-159.96 236.92,-224.33 108.76,-85.45 256.1,-203.13 323.91,-316.32 252.31,-421.2 -447.83,-687.23 -705.61,-315.7z"/>
   </g>
   <g>
    <path class="fil3" d="M14498.46 17361.65c-42.07,-141.13 -186.3,-259.52 -386.57,-244.58 -169.77,12.67 -330.41,143.52 -237.9,330.4 78.51,158.6 315.77,290.29 483.99,453.19 30.66,29.7 124.02,150.48 154.61,164.68 30.93,-75.38 244.51,-259.34 312.94,-314.32 30.52,-24.53 54.48,-48.04 84.63,-71.33 79.22,-61.2 182.75,-131.34 226.16,-234.33 112.06,-265.91 -248.96,-428.11 -495.29,-253.38 -38.16,27.07 -86.8,79.62 -110.41,123.38 -14.24,26.41 -10.7,27.96 -32.15,46.29z"/>
    <path class="fil1" d="M14498.46 17361.65c21.46,-18.32 17.91,-19.88 32.15,-46.29 23.61,-43.75 72.25,-96.3 110.41,-123.38 246.34,-174.74 607.36,-12.53 495.29,253.38 -43.41,102.99 -146.94,173.13 -226.16,234.33 -30.15,23.29 -54.11,46.8 -84.63,71.33 -68.43,54.97 -282,238.94 -312.94,314.32 -30.6,-14.2 -123.95,-134.98 -154.61,-164.68 -168.22,-162.9 -405.48,-294.59 -483.99,-453.19 -92.52,-186.88 68.12,-317.73 237.9,-330.4 200.27,-14.94 344.5,103.45 386.57,244.58zm3.92 -168.37c-3.07,-2.75 -4.18,-3.46 -11.17,-12.06 -3.64,-4.49 -6.45,-8.78 -9.81,-13.49 -228.43,-321.19 -927.31,-99.67 -686.23,334.54 141.5,254.86 488.79,377 644.98,652.04 19.91,35.05 37.49,79.39 60.66,115.41 44.54,-80.92 89.39,-156.49 146.33,-220.08 66.93,-74.73 154.99,-159.96 236.93,-224.33 108.75,-85.45 256.1,-203.13 323.91,-316.32 252.31,-421.2 -447.83,-687.24 -705.61,-315.7z"/>
   </g>
   <g>
    <path class="fil3" d="M15319.73 15538.42c-42.07,-141.13 -186.3,-259.53 -386.57,-244.58 -169.78,12.67 -330.42,143.51 -237.9,330.4 78.51,158.59 315.77,290.29 484,453.18 30.66,29.7 124.02,150.49 154.6,164.69 30.94,-75.38 244.52,-259.34 312.95,-314.32 30.52,-24.53 54.47,-48.05 84.63,-71.33 79.22,-61.2 182.75,-131.34 226.15,-234.33 112.06,-265.91 -248.95,-428.11 -495.29,-253.38 -38.16,27.07 -86.8,79.62 -110.4,123.38 -14.24,26.41 -10.71,27.96 -32.16,46.29z"/>
    <path class="fil1" d="M15319.73 15538.42c21.46,-18.32 17.92,-19.88 32.16,-46.29 23.6,-43.75 72.25,-96.3 110.4,-123.38 246.35,-174.74 607.36,-12.53 495.29,253.38 -43.4,102.99 -146.94,173.13 -226.15,234.33 -30.16,23.28 -54.11,46.8 -84.63,71.33 -68.43,54.97 -282,238.94 -312.95,314.32 -30.59,-14.2 -123.94,-134.99 -154.6,-164.69 -168.23,-162.9 -405.49,-294.59 -484,-453.18 -92.52,-186.89 68.12,-317.73 237.9,-330.4 200.27,-14.95 344.49,103.45 386.57,244.58zm3.92 -168.37c-3.06,-2.75 -4.18,-3.46 -11.17,-12.06 -3.64,-4.49 -6.45,-8.78 -9.8,-13.49 -228.43,-321.19 -927.31,-99.67 -686.24,334.54 141.51,254.86 488.8,377 644.98,652.04 19.91,35.04 37.49,79.39 60.66,115.41 44.55,-80.92 89.39,-156.49 146.34,-220.08 66.92,-74.73 154.99,-159.96 236.92,-224.33 108.76,-85.45 256.1,-203.14 323.91,-316.33 252.31,-421.19 -447.83,-687.23 -705.61,-315.69z"/>
   </g>
   <g>
    <path class="fil3" d="M15390.98 13572.08c-42.07,-141.13 -186.3,-259.53 -386.57,-244.59 -169.77,12.68 -330.41,143.52 -237.9,330.4 78.51,158.59 315.77,290.29 483.99,453.18 30.66,29.7 124.02,150.49 154.61,164.68 30.93,-75.38 244.52,-259.34 312.94,-314.32 30.52,-24.52 54.48,-48.04 84.63,-71.33 79.22,-61.19 182.75,-131.33 226.16,-234.33 112.06,-265.9 -248.96,-428.11 -495.29,-253.37 -38.16,27.06 -86.8,79.62 -110.41,123.38 -14.24,26.4 -10.7,27.96 -32.15,46.29z"/>
    <path class="fil1" d="M15390.98 13572.08c21.46,-18.32 17.91,-19.89 32.15,-46.29 23.61,-43.75 72.25,-96.31 110.41,-123.38 246.34,-174.74 607.36,-12.53 495.29,253.37 -43.41,103 -146.94,173.14 -226.16,234.33 -30.15,23.29 -54.11,46.81 -84.63,71.33 -68.42,54.97 -282,238.94 -312.94,314.32 -30.6,-14.19 -123.95,-134.98 -154.61,-164.68 -168.22,-162.9 -405.48,-294.59 -483.99,-453.18 -92.52,-186.89 68.12,-317.73 237.9,-330.4 200.27,-14.94 344.5,103.46 386.57,244.59zm3.92 -168.38c-3.07,-2.75 -4.18,-3.45 -11.17,-12.05 -3.64,-4.49 -6.45,-8.78 -9.81,-13.5 -228.43,-321.18 -927.31,-99.66 -686.23,334.55 141.51,254.86 488.79,376.99 644.98,652.03 19.91,35.05 37.49,79.39 60.66,115.42 44.54,-80.92 89.39,-156.5 146.33,-220.09 66.93,-74.73 154.99,-159.96 236.93,-224.33 108.75,-85.45 256.1,-203.13 323.91,-316.32 252.31,-421.2 -447.83,-687.23 -705.61,-315.7z"/>
   </g>
   <g>
    <path class="fil3" d="M14287.77 9551.65c-42.07,-141.13 -186.3,-259.52 -386.57,-244.58 -169.78,12.68 -330.42,143.52 -237.9,330.4 78.51,158.59 315.77,290.29 484,453.18 30.66,29.7 124.02,150.48 154.6,164.68 30.94,-75.38 244.52,-259.34 312.95,-314.32 30.52,-24.52 54.47,-48.04 84.63,-71.33 79.22,-61.19 182.75,-131.33 226.15,-234.33 112.07,-265.9 -248.95,-428.11 -495.29,-253.38 -38.16,27.07 -86.81,79.63 -110.41,123.38 -14.24,26.41 -10.7,27.97 -32.16,46.29z"/>
    <path class="fil1" d="M14287.77 9551.65c21.46,-18.32 17.92,-19.88 32.16,-46.29 23.6,-43.75 72.25,-96.3 110.41,-123.38 246.34,-174.74 607.36,-12.53 495.29,253.38 -43.4,103 -146.94,173.14 -226.15,234.33 -30.16,23.29 -54.11,46.81 -84.63,71.33 -68.43,54.97 -282,238.94 -312.95,314.32 -30.59,-14.2 -123.94,-134.98 -154.6,-164.68 -168.22,-162.9 -405.49,-294.59 -484,-453.18 -92.52,-186.89 68.12,-317.73 237.9,-330.4 200.27,-14.94 344.49,103.45 386.57,244.58zm3.92 -168.37c-3.06,-2.75 -4.17,-3.45 -11.16,-12.06 -3.65,-4.49 -6.46,-8.77 -9.81,-13.49 -228.43,-321.18 -927.31,-99.66 -686.24,334.54 141.51,254.87 488.8,377 644.99,652.04 19.9,35.05 37.48,79.39 60.66,115.41 44.55,-80.91 89.39,-156.49 146.34,-220.08 66.92,-74.73 154.99,-159.96 236.92,-224.33 108.76,-85.45 256.1,-203.13 323.91,-316.32 252.31,-421.2 -447.83,-687.23 -705.61,-315.7z"/>
   </g>
   <g>
    <path class="fil3" d="M13011.42 8209.7c-42.08,-141.13 -186.3,-259.53 -386.57,-244.58 -169.77,12.67 -330.41,143.51 -237.9,330.4 78.52,158.59 315.77,290.29 484,453.18 30.66,29.7 124.02,150.49 154.61,164.69 30.93,-75.39 244.51,-259.34 312.94,-314.33 30.52,-24.52 54.48,-48.04 84.63,-71.32 79.22,-61.2 182.75,-131.34 226.16,-234.33 112.06,-265.91 -248.96,-428.11 -495.29,-253.38 -38.16,27.07 -86.8,79.62 -110.41,123.38 -14.24,26.4 -10.7,27.96 -32.15,46.29z"/>
    <path class="fil1" d="M13011.42 8209.7c21.46,-18.32 17.91,-19.89 32.15,-46.29 23.61,-43.75 72.25,-96.3 110.41,-123.38 246.34,-174.74 607.36,-12.53 495.29,253.38 -43.41,102.99 -146.94,173.13 -226.16,234.33 -30.15,23.28 -54.11,46.8 -84.63,71.32 -68.43,54.98 -282,238.94 -312.94,314.33 -30.6,-14.2 -123.95,-134.99 -154.61,-164.69 -168.22,-162.9 -405.48,-294.59 -484,-453.18 -92.51,-186.89 68.13,-317.73 237.9,-330.4 200.27,-14.95 344.49,103.45 386.57,244.58zm3.91 -168.37c-3.06,-2.75 -4.17,-3.46 -11.16,-12.06 -3.64,-4.49 -6.45,-8.78 -9.81,-13.49 -228.43,-321.19 -927.31,-99.67 -686.23,334.54 141.5,254.86 488.79,376.99 644.98,652.03 19.91,35.05 37.49,79.4 60.66,115.42 44.55,-80.92 89.39,-156.49 146.34,-220.08 66.93,-74.74 154.99,-159.96 236.93,-224.34 108.75,-85.44 256.09,-203.13 323.91,-316.32 252.3,-421.2 -447.83,-687.23 -705.61,-315.69z"/>
   </g>
   <g>
    <path class="fil3" d="M11096.27 6927.66c-42.07,-141.13 -186.3,-259.52 -386.57,-244.58 -169.77,12.67 -330.41,143.52 -237.9,330.4 78.51,158.6 315.77,290.29 483.99,453.19 30.67,29.7 124.02,150.48 154.61,164.68 30.93,-75.38 244.52,-259.34 312.94,-314.32 30.52,-24.52 54.48,-48.04 84.63,-71.33 79.22,-61.19 182.75,-131.33 226.16,-234.33 112.06,-265.9 -248.96,-428.11 -495.29,-253.38 -38.16,27.07 -86.8,79.63 -110.4,123.38 -14.25,26.41 -10.71,27.97 -32.16,46.29z"/>
    <path class="fil1" d="M11096.27 6927.66c21.46,-18.32 17.91,-19.88 32.16,-46.29 23.6,-43.75 72.24,-96.3 110.4,-123.38 246.34,-174.74 607.36,-12.53 495.29,253.38 -43.41,103 -146.94,173.14 -226.16,234.33 -30.15,23.29 -54.11,46.81 -84.63,71.33 -68.42,54.97 -282,238.94 -312.94,314.32 -30.6,-14.2 -123.94,-134.98 -154.61,-164.68 -168.22,-162.9 -405.48,-294.59 -483.99,-453.19 -92.52,-186.88 68.12,-317.73 237.9,-330.4 200.27,-14.94 344.5,103.45 386.57,244.58zm3.92 -168.37c-3.07,-2.75 -4.18,-3.45 -11.17,-12.06 -3.64,-4.49 -6.45,-8.77 -9.81,-13.49 -228.43,-321.18 -927.31,-99.67 -686.23,334.54 141.51,254.87 488.79,377 644.98,652.04 19.91,35.05 37.49,79.39 60.66,115.41 44.54,-80.91 89.39,-156.49 146.34,-220.08 66.92,-74.73 154.99,-159.96 236.92,-224.33 108.75,-85.45 256.1,-203.13 323.91,-316.32 252.31,-421.2 -447.83,-687.23 -705.61,-315.7z"/>
   </g>
   <g>
    <path class="fil3" d="M8888.35 6451.82c-42.07,-141.13 -186.3,-259.52 -386.57,-244.58 -169.77,12.68 -330.42,143.52 -237.9,330.4 78.52,158.6 315.77,290.29 484,453.19 30.66,29.7 124.02,150.48 154.61,164.68 30.93,-75.38 244.51,-259.34 312.94,-314.32 30.52,-24.52 54.48,-48.04 84.63,-71.33 79.22,-61.19 182.75,-131.33 226.16,-234.33 112.06,-265.9 -248.96,-428.11 -495.29,-253.38 -38.16,27.07 -86.8,79.63 -110.41,123.38 -14.24,26.41 -10.7,27.97 -32.16,46.29z"/>
    <path class="fil1" d="M8888.35 6451.82c21.46,-18.32 17.92,-19.88 32.16,-46.29 23.61,-43.75 72.25,-96.3 110.41,-123.38 246.34,-174.74 607.36,-12.53 495.29,253.38 -43.41,103 -146.94,173.14 -226.16,234.33 -30.15,23.29 -54.11,46.81 -84.63,71.33 -68.43,54.97 -282,238.94 -312.94,314.32 -30.6,-14.2 -123.95,-134.98 -154.61,-164.68 -168.22,-162.9 -405.48,-294.59 -484,-453.19 -92.52,-186.88 68.13,-317.72 237.9,-330.4 200.27,-14.94 344.49,103.45 386.57,244.58zm3.92 -168.37c-3.06,-2.75 -4.17,-3.45 -11.16,-12.06 -3.65,-4.49 -6.46,-8.77 -9.81,-13.49 -228.43,-321.18 -927.31,-99.66 -686.23,334.54 141.5,254.87 488.79,377 644.98,652.04 19.91,35.05 37.49,79.39 60.66,115.41 44.55,-80.91 89.39,-156.49 146.34,-220.08 66.93,-74.73 154.99,-159.96 236.93,-224.33 108.75,-85.45 256.09,-203.13 323.9,-316.32 252.31,-421.2 -447.82,-687.23 -705.61,-315.7z"/>
   </g>
   <g>
    <path class="fil3" d="M6578.38 7057.42c-42.07,-141.13 -186.3,-259.52 -386.57,-244.58 -169.78,12.67 -330.42,143.52 -237.9,330.4 78.51,158.6 315.77,290.29 483.99,453.19 30.67,29.7 124.02,150.48 154.61,164.68 30.94,-75.38 244.52,-259.34 312.95,-314.32 30.51,-24.52 54.47,-48.04 84.62,-71.33 79.23,-61.19 182.75,-131.34 226.16,-234.33 112.06,-265.9 -248.95,-428.11 -495.29,-253.38 -38.16,27.07 -86.8,79.62 -110.4,123.38 -14.25,26.41 -10.71,27.96 -32.16,46.29z"/>
    <path class="fil1" d="M6578.38 7057.42c21.46,-18.32 17.91,-19.88 32.16,-46.29 23.6,-43.75 72.25,-96.3 110.4,-123.38 246.35,-174.74 607.36,-12.53 495.29,253.38 -43.41,102.99 -146.94,173.14 -226.16,234.33 -30.15,23.29 -54.11,46.81 -84.62,71.33 -68.43,54.97 -282,238.94 -312.95,314.32 -30.59,-14.2 -123.94,-134.98 -154.61,-164.68 -168.22,-162.9 -405.48,-294.59 -483.99,-453.19 -92.52,-186.88 68.12,-317.73 237.9,-330.4 200.27,-14.94 344.49,103.45 386.57,244.58zm3.92 -168.37c-3.06,-2.75 -4.18,-3.46 -11.17,-12.06 -3.64,-4.49 -6.45,-8.78 -9.8,-13.49 -228.43,-321.18 -927.32,-99.67 -686.24,334.54 141.51,254.86 488.8,377 644.98,652.04 19.91,35.05 37.49,79.39 60.66,115.41 44.55,-80.91 89.39,-156.49 146.34,-220.08 66.92,-74.73 154.99,-159.96 236.92,-224.33 108.76,-85.45 256.1,-203.13 323.91,-316.32 252.31,-421.2 -447.83,-687.23 -705.61,-315.7z"/>
   </g>
   <g>
    <path class="fil3" d="M4562.42 8056.51c-42.07,-141.13 -186.3,-259.53 -386.57,-244.59 -169.77,12.68 -330.41,143.52 -237.9,330.4 78.51,158.59 315.77,290.29 483.99,453.18 30.67,29.7 124.02,150.49 154.61,164.68 30.93,-75.38 244.52,-259.34 312.95,-314.32 30.51,-24.52 54.47,-48.04 84.62,-71.33 79.22,-61.19 182.75,-131.33 226.16,-234.33 112.06,-265.9 -248.96,-428.11 -495.29,-253.37 -38.16,27.06 -86.8,79.62 -110.4,123.38 -14.25,26.4 -10.71,27.96 -32.16,46.29z"/>
    <path class="fil1" d="M4562.42 8056.51c21.46,-18.32 17.91,-19.89 32.16,-46.29 23.6,-43.75 72.24,-96.31 110.4,-123.38 246.34,-174.74 607.36,-12.53 495.29,253.37 -43.41,103 -146.94,173.14 -226.16,234.33 -30.15,23.29 -54.11,46.81 -84.62,71.33 -68.43,54.97 -282.01,238.94 -312.95,314.32 -30.6,-14.19 -123.94,-134.98 -154.61,-164.68 -168.22,-162.9 -405.48,-294.59 -483.99,-453.18 -92.52,-186.89 68.12,-317.73 237.9,-330.4 200.28,-14.94 344.5,103.46 386.57,244.59zm3.92 -168.38c-3.07,-2.75 -4.18,-3.45 -11.17,-12.05 -3.64,-4.49 -6.45,-8.78 -9.81,-13.5 -228.43,-321.18 -927.31,-99.66 -686.23,334.55 141.51,254.86 488.8,376.99 644.98,652.03 19.91,35.05 37.49,79.39 60.66,115.42 44.55,-80.92 89.39,-156.49 146.34,-220.09 66.92,-74.73 154.99,-159.96 236.92,-224.33 108.75,-85.45 256.1,-203.13 323.91,-316.32 252.31,-421.2 -447.83,-687.23 -705.61,-315.7z"/>
   </g>
   <g>
    <path class="fil3" d="M3178.04 9608.43c-42.07,-141.13 -186.3,-259.53 -386.57,-244.58 -169.77,12.67 -330.41,143.51 -237.9,330.4 78.52,158.6 315.77,290.29 484,453.18 30.66,29.7 124.02,150.49 154.61,164.69 30.93,-75.38 244.51,-259.34 312.94,-314.32 30.52,-24.53 54.48,-48.04 84.63,-71.33 79.22,-61.2 182.75,-131.34 226.16,-234.33 112.06,-265.91 -248.96,-428.11 -495.29,-253.38 -38.16,27.07 -86.8,79.62 -110.41,123.38 -14.24,26.41 -10.7,27.96 -32.15,46.29z"/>
    <path class="fil1" d="M3178.04 9608.43c21.46,-18.32 17.91,-19.88 32.15,-46.29 23.61,-43.75 72.25,-96.3 110.41,-123.38 246.34,-174.74 607.36,-12.53 495.29,253.38 -43.41,102.99 -146.94,173.13 -226.16,234.33 -30.15,23.29 -54.11,46.8 -84.63,71.33 -68.43,54.97 -282,238.94 -312.94,314.32 -30.6,-14.2 -123.95,-134.99 -154.61,-164.69 -168.22,-162.9 -405.48,-294.58 -484,-453.18 -92.51,-186.89 68.13,-317.73 237.9,-330.4 200.27,-14.95 344.5,103.45 386.57,244.58zm3.91 -168.37c-3.06,-2.75 -4.17,-3.46 -11.16,-12.06 -3.64,-4.49 -6.45,-8.78 -9.81,-13.49 -228.43,-321.19 -927.31,-99.67 -686.23,334.54 141.5,254.86 488.79,377 644.98,652.04 19.91,35.04 37.49,79.39 60.66,115.41 44.54,-80.92 89.39,-156.49 146.33,-220.08 66.93,-74.73 154.99,-159.96 236.93,-224.33 108.75,-85.45 256.09,-203.14 323.91,-316.33 252.3,-421.19 -447.83,-687.23 -705.61,-315.69z"/>
   </g>
   <g>
    <path class="fil3" d="M15333.98 11449c-42.08,-141.13 -186.3,-259.53 -386.57,-244.58 -169.77,12.67 -330.41,143.51 -237.9,330.4 78.52,158.59 315.77,290.29 484,453.18 30.66,29.7 124.02,150.49 154.61,164.69 30.93,-75.38 244.51,-259.34 312.94,-314.32 30.52,-24.53 54.48,-48.05 84.63,-71.33 79.22,-61.2 182.75,-131.34 226.16,-234.33 112.06,-265.91 -248.96,-428.11 -495.29,-253.38 -38.16,27.07 -86.8,79.62 -110.41,123.38 -14.24,26.41 -10.7,27.96 -32.15,46.29z"/>
    <path class="fil1" d="M15333.98 11449c21.46,-18.32 17.91,-19.88 32.15,-46.29 23.61,-43.75 72.25,-96.3 110.41,-123.38 246.34,-174.74 607.36,-12.53 495.29,253.38 -43.41,102.99 -146.94,173.13 -226.16,234.33 -30.15,23.28 -54.11,46.8 -84.63,71.33 -68.43,54.97 -282,238.94 -312.94,314.32 -30.6,-14.2 -123.95,-134.99 -154.61,-164.69 -168.22,-162.9 -405.48,-294.59 -484,-453.18 -92.51,-186.89 68.13,-317.73 237.9,-330.4 200.27,-14.95 344.49,103.45 386.57,244.58zm3.91 -168.37c-3.06,-2.75 -4.17,-3.46 -11.16,-12.06 -3.64,-4.49 -6.45,-8.78 -9.81,-13.49 -228.43,-321.19 -927.31,-99.67 -686.23,334.54 141.5,254.86 488.79,377 644.98,652.04 19.91,35.04 37.49,79.39 60.66,115.41 44.54,-80.92 89.39,-156.49 146.33,-220.08 66.93,-74.73 154.99,-159.96 236.93,-224.33 108.75,-85.45 256.09,-203.14 323.91,-316.33 252.3,-421.19 -447.83,-687.23 -705.61,-315.69z"/>
   </g>
  </g>
 </g>
</svg>
